<mxfile host="65bd71144e">
    <diagram name="Page-1" id="VmTP_7x2XxIrSGTmvcr9">
        <mxGraphModel dx="457" dy="323" grid="1" gridSize="10" guides="1" tooltips="1" connect="1" arrows="1" fold="1" page="1" pageScale="1" pageWidth="850" pageHeight="1100" math="0" shadow="0">
            <root>
                <mxCell id="0"/>
                <mxCell id="1" parent="0"/>
                <mxCell id="OVe80IDa_NTlSNf9u7EA-23" value="" style="rounded=0;whiteSpace=wrap;html=1;" parent="1" vertex="1">
                    <mxGeometry x="10" y="840" width="150" height="170" as="geometry"/>
                </mxCell>
                <mxCell id="OVe80IDa_NTlSNf9u7EA-1" value="Admin" style="swimlane;fontStyle=1;align=center;verticalAlign=top;childLayout=stackLayout;horizontal=1;startSize=26;horizontalStack=0;resizeParent=1;resizeParentMax=0;resizeLast=0;collapsible=1;marginBottom=0;whiteSpace=wrap;html=1;" parent="1" vertex="1">
                    <mxGeometry x="80" y="380" width="160" height="156" as="geometry"/>
                </mxCell>
                <mxCell id="OVe80IDa_NTlSNf9u7EA-2" value="+ field: AD_ID" style="text;strokeColor=none;fillColor=none;align=left;verticalAlign=top;spacingLeft=4;spacingRight=4;overflow=hidden;rotatable=0;points=[[0,0.5],[1,0.5]];portConstraint=eastwest;whiteSpace=wrap;html=1;" parent="OVe80IDa_NTlSNf9u7EA-1" vertex="1">
                    <mxGeometry y="26" width="160" height="26" as="geometry"/>
                </mxCell>
                <mxCell id="OVe80IDa_NTlSNf9u7EA-38" value="+ field: phone" style="text;strokeColor=none;fillColor=none;align=left;verticalAlign=top;spacingLeft=4;spacingRight=4;overflow=hidden;rotatable=0;points=[[0,0.5],[1,0.5]];portConstraint=eastwest;whiteSpace=wrap;html=1;" parent="OVe80IDa_NTlSNf9u7EA-1" vertex="1">
                    <mxGeometry y="52" width="160" height="26" as="geometry"/>
                </mxCell>
                <mxCell id="OVe80IDa_NTlSNf9u7EA-39" value="+ field: password" style="text;strokeColor=none;fillColor=none;align=left;verticalAlign=top;spacingLeft=4;spacingRight=4;overflow=hidden;rotatable=0;points=[[0,0.5],[1,0.5]];portConstraint=eastwest;whiteSpace=wrap;html=1;" parent="OVe80IDa_NTlSNf9u7EA-1" vertex="1">
                    <mxGeometry y="78" width="160" height="26" as="geometry"/>
                </mxCell>
                <mxCell id="OVe80IDa_NTlSNf9u7EA-40" value="+ field: email" style="text;strokeColor=none;fillColor=none;align=left;verticalAlign=top;spacingLeft=4;spacingRight=4;overflow=hidden;rotatable=0;points=[[0,0.5],[1,0.5]];portConstraint=eastwest;whiteSpace=wrap;html=1;" parent="OVe80IDa_NTlSNf9u7EA-1" vertex="1">
                    <mxGeometry y="104" width="160" height="26" as="geometry"/>
                </mxCell>
                <mxCell id="OVe80IDa_NTlSNf9u7EA-48" value="+ field: name" style="text;strokeColor=none;fillColor=none;align=left;verticalAlign=top;spacingLeft=4;spacingRight=4;overflow=hidden;rotatable=0;points=[[0,0.5],[1,0.5]];portConstraint=eastwest;whiteSpace=wrap;html=1;" parent="OVe80IDa_NTlSNf9u7EA-1" vertex="1">
                    <mxGeometry y="130" width="160" height="26" as="geometry"/>
                </mxCell>
                <mxCell id="OVe80IDa_NTlSNf9u7EA-5" value="about the project&lt;div&gt;&lt;br&gt;&lt;/div&gt;&lt;div&gt;#. users can see the progres of there money&lt;/div&gt;&lt;div&gt;#. admin can control everthing&lt;/div&gt;&lt;div&gt;#. admin can add user to the system&lt;/div&gt;&lt;div&gt;#. '' '' create categoray basd on the money&lt;/div&gt;&lt;div&gt;#. ' ' can set the user in recived mode (which is when the user get the money he saved for a while&lt;/div&gt;&lt;div&gt;#. when the admin hover over the date it must show the actual date&amp;nbsp;&lt;/div&gt;&lt;div&gt;#. the system must provide a check box for the uses that submit ther fee&lt;/div&gt;&lt;div&gt;#. the sys must provide a prompt for the the admin for conformation&lt;/div&gt;&lt;div&gt;#. the admin can add new sheat to the table&lt;/div&gt;" style="text;html=1;align=center;verticalAlign=middle;resizable=0;points=[];autosize=1;strokeColor=none;fillColor=none;" parent="1" vertex="1">
                    <mxGeometry x="260" y="88" width="540" height="170" as="geometry"/>
                </mxCell>
                <mxCell id="OVe80IDa_NTlSNf9u7EA-6" value="" style="shape=table;startSize=0;container=1;collapsible=0;childLayout=tableLayout;fontSize=16;" parent="1" vertex="1">
                    <mxGeometry x="370" y="840" width="460" height="120" as="geometry"/>
                </mxCell>
                <mxCell id="OVe80IDa_NTlSNf9u7EA-7" value="" style="shape=tableRow;horizontal=0;startSize=0;swimlaneHead=0;swimlaneBody=0;strokeColor=inherit;top=0;left=0;bottom=0;right=0;collapsible=0;dropTarget=0;fillColor=none;points=[[0,0.5],[1,0.5]];portConstraint=eastwest;fontSize=16;" parent="OVe80IDa_NTlSNf9u7EA-6" vertex="1">
                    <mxGeometry width="460" height="40" as="geometry"/>
                </mxCell>
                <mxCell id="OVe80IDa_NTlSNf9u7EA-59" value="ሙሉ ከፍሏል" style="shape=partialRectangle;html=1;whiteSpace=wrap;connectable=0;strokeColor=inherit;overflow=hidden;fillColor=none;top=0;left=0;bottom=0;right=0;pointerEvents=1;fontSize=16;" parent="OVe80IDa_NTlSNf9u7EA-7" vertex="1">
                    <mxGeometry width="58" height="40" as="geometry">
                        <mxRectangle width="58" height="40" as="alternateBounds"/>
                    </mxGeometry>
                </mxCell>
                <mxCell id="OVe80IDa_NTlSNf9u7EA-56" value="ደርሶታል" style="shape=partialRectangle;html=1;whiteSpace=wrap;connectable=0;strokeColor=inherit;overflow=hidden;fillColor=none;top=0;left=0;bottom=0;right=0;pointerEvents=1;fontSize=16;" parent="OVe80IDa_NTlSNf9u7EA-7" vertex="1">
                    <mxGeometry x="58" width="60" height="40" as="geometry">
                        <mxRectangle width="60" height="40" as="alternateBounds"/>
                    </mxGeometry>
                </mxCell>
                <mxCell id="OVe80IDa_NTlSNf9u7EA-8" value="name" style="shape=partialRectangle;html=1;whiteSpace=wrap;connectable=0;strokeColor=inherit;overflow=hidden;fillColor=none;top=0;left=0;bottom=0;right=0;pointerEvents=1;fontSize=16;" parent="OVe80IDa_NTlSNf9u7EA-7" vertex="1">
                    <mxGeometry x="118" width="58" height="40" as="geometry">
                        <mxRectangle width="58" height="40" as="alternateBounds"/>
                    </mxGeometry>
                </mxCell>
                <mxCell id="OVe80IDa_NTlSNf9u7EA-9" value="1/23/2022" style="shape=partialRectangle;html=1;whiteSpace=wrap;connectable=0;strokeColor=inherit;overflow=hidden;fillColor=none;top=0;left=0;bottom=0;right=0;pointerEvents=1;fontSize=16;" parent="OVe80IDa_NTlSNf9u7EA-7" vertex="1">
                    <mxGeometry x="176" width="89" height="40" as="geometry">
                        <mxRectangle width="89" height="40" as="alternateBounds"/>
                    </mxGeometry>
                </mxCell>
                <mxCell id="OVe80IDa_NTlSNf9u7EA-10" value="2/23/1022" style="shape=partialRectangle;html=1;whiteSpace=wrap;connectable=0;strokeColor=inherit;overflow=hidden;fillColor=none;top=0;left=0;bottom=0;right=0;pointerEvents=1;fontSize=16;" parent="OVe80IDa_NTlSNf9u7EA-7" vertex="1">
                    <mxGeometry x="265" width="97" height="40" as="geometry">
                        <mxRectangle width="97" height="40" as="alternateBounds"/>
                    </mxGeometry>
                </mxCell>
                <mxCell id="OVe80IDa_NTlSNf9u7EA-32" value="Action" style="shape=partialRectangle;html=1;whiteSpace=wrap;connectable=0;strokeColor=inherit;overflow=hidden;fillColor=none;top=0;left=0;bottom=0;right=0;pointerEvents=1;fontSize=16;" parent="OVe80IDa_NTlSNf9u7EA-7" vertex="1">
                    <mxGeometry x="362" width="98" height="40" as="geometry">
                        <mxRectangle width="98" height="40" as="alternateBounds"/>
                    </mxGeometry>
                </mxCell>
                <mxCell id="OVe80IDa_NTlSNf9u7EA-11" value="" style="shape=tableRow;horizontal=0;startSize=0;swimlaneHead=0;swimlaneBody=0;strokeColor=inherit;top=0;left=0;bottom=0;right=0;collapsible=0;dropTarget=0;fillColor=none;points=[[0,0.5],[1,0.5]];portConstraint=eastwest;fontSize=16;" parent="OVe80IDa_NTlSNf9u7EA-6" vertex="1">
                    <mxGeometry y="40" width="460" height="40" as="geometry"/>
                </mxCell>
                <mxCell id="OVe80IDa_NTlSNf9u7EA-60" style="shape=partialRectangle;html=1;whiteSpace=wrap;connectable=0;strokeColor=inherit;overflow=hidden;fillColor=none;top=0;left=0;bottom=0;right=0;pointerEvents=1;fontSize=16;" parent="OVe80IDa_NTlSNf9u7EA-11" vertex="1">
                    <mxGeometry width="58" height="40" as="geometry">
                        <mxRectangle width="58" height="40" as="alternateBounds"/>
                    </mxGeometry>
                </mxCell>
                <mxCell id="OVe80IDa_NTlSNf9u7EA-57" style="shape=partialRectangle;html=1;whiteSpace=wrap;connectable=0;strokeColor=inherit;overflow=hidden;fillColor=none;top=0;left=0;bottom=0;right=0;pointerEvents=1;fontSize=16;" parent="OVe80IDa_NTlSNf9u7EA-11" vertex="1">
                    <mxGeometry x="58" width="60" height="40" as="geometry">
                        <mxRectangle width="60" height="40" as="alternateBounds"/>
                    </mxGeometry>
                </mxCell>
                <mxCell id="OVe80IDa_NTlSNf9u7EA-12" value="abi" style="shape=partialRectangle;html=1;whiteSpace=wrap;connectable=0;strokeColor=inherit;overflow=hidden;fillColor=none;top=0;left=0;bottom=0;right=0;pointerEvents=1;fontSize=16;" parent="OVe80IDa_NTlSNf9u7EA-11" vertex="1">
                    <mxGeometry x="118" width="58" height="40" as="geometry">
                        <mxRectangle width="58" height="40" as="alternateBounds"/>
                    </mxGeometry>
                </mxCell>
                <mxCell id="OVe80IDa_NTlSNf9u7EA-13" value="200" style="shape=partialRectangle;html=1;whiteSpace=wrap;connectable=0;strokeColor=inherit;overflow=hidden;fillColor=none;top=0;left=0;bottom=0;right=0;pointerEvents=1;fontSize=16;" parent="OVe80IDa_NTlSNf9u7EA-11" vertex="1">
                    <mxGeometry x="176" width="89" height="40" as="geometry">
                        <mxRectangle width="89" height="40" as="alternateBounds"/>
                    </mxGeometry>
                </mxCell>
                <mxCell id="OVe80IDa_NTlSNf9u7EA-14" value="1000" style="shape=partialRectangle;html=1;whiteSpace=wrap;connectable=0;strokeColor=inherit;overflow=hidden;fillColor=none;top=0;left=0;bottom=0;right=0;pointerEvents=1;fontSize=16;" parent="OVe80IDa_NTlSNf9u7EA-11" vertex="1">
                    <mxGeometry x="265" width="97" height="40" as="geometry">
                        <mxRectangle width="97" height="40" as="alternateBounds"/>
                    </mxGeometry>
                </mxCell>
                <mxCell id="OVe80IDa_NTlSNf9u7EA-33" style="shape=partialRectangle;html=1;whiteSpace=wrap;connectable=0;strokeColor=inherit;overflow=hidden;fillColor=none;top=0;left=0;bottom=0;right=0;pointerEvents=1;fontSize=16;" parent="OVe80IDa_NTlSNf9u7EA-11" vertex="1">
                    <mxGeometry x="362" width="98" height="40" as="geometry">
                        <mxRectangle width="98" height="40" as="alternateBounds"/>
                    </mxGeometry>
                </mxCell>
                <mxCell id="OVe80IDa_NTlSNf9u7EA-15" value="" style="shape=tableRow;horizontal=0;startSize=0;swimlaneHead=0;swimlaneBody=0;strokeColor=inherit;top=0;left=0;bottom=0;right=0;collapsible=0;dropTarget=0;fillColor=none;points=[[0,0.5],[1,0.5]];portConstraint=eastwest;fontSize=16;" parent="OVe80IDa_NTlSNf9u7EA-6" vertex="1">
                    <mxGeometry y="80" width="460" height="40" as="geometry"/>
                </mxCell>
                <mxCell id="OVe80IDa_NTlSNf9u7EA-61" style="shape=partialRectangle;html=1;whiteSpace=wrap;connectable=0;strokeColor=inherit;overflow=hidden;fillColor=none;top=0;left=0;bottom=0;right=0;pointerEvents=1;fontSize=16;" parent="OVe80IDa_NTlSNf9u7EA-15" vertex="1">
                    <mxGeometry width="58" height="40" as="geometry">
                        <mxRectangle width="58" height="40" as="alternateBounds"/>
                    </mxGeometry>
                </mxCell>
                <mxCell id="OVe80IDa_NTlSNf9u7EA-58" style="shape=partialRectangle;html=1;whiteSpace=wrap;connectable=0;strokeColor=inherit;overflow=hidden;fillColor=none;top=0;left=0;bottom=0;right=0;pointerEvents=1;fontSize=16;" parent="OVe80IDa_NTlSNf9u7EA-15" vertex="1">
                    <mxGeometry x="58" width="60" height="40" as="geometry">
                        <mxRectangle width="60" height="40" as="alternateBounds"/>
                    </mxGeometry>
                </mxCell>
                <mxCell id="OVe80IDa_NTlSNf9u7EA-16" value="tati" style="shape=partialRectangle;html=1;whiteSpace=wrap;connectable=0;strokeColor=inherit;overflow=hidden;fillColor=none;top=0;left=0;bottom=0;right=0;pointerEvents=1;fontSize=16;" parent="OVe80IDa_NTlSNf9u7EA-15" vertex="1">
                    <mxGeometry x="118" width="58" height="40" as="geometry">
                        <mxRectangle width="58" height="40" as="alternateBounds"/>
                    </mxGeometry>
                </mxCell>
                <mxCell id="OVe80IDa_NTlSNf9u7EA-17" value="" style="shape=partialRectangle;html=1;whiteSpace=wrap;connectable=0;strokeColor=inherit;overflow=hidden;fillColor=none;top=0;left=0;bottom=0;right=0;pointerEvents=1;fontSize=16;" parent="OVe80IDa_NTlSNf9u7EA-15" vertex="1">
                    <mxGeometry x="176" width="89" height="40" as="geometry">
                        <mxRectangle width="89" height="40" as="alternateBounds"/>
                    </mxGeometry>
                </mxCell>
                <mxCell id="OVe80IDa_NTlSNf9u7EA-18" value="" style="shape=partialRectangle;html=1;whiteSpace=wrap;connectable=0;strokeColor=inherit;overflow=hidden;fillColor=none;top=0;left=0;bottom=0;right=0;pointerEvents=1;fontSize=16;" parent="OVe80IDa_NTlSNf9u7EA-15" vertex="1">
                    <mxGeometry x="265" width="97" height="40" as="geometry">
                        <mxRectangle width="97" height="40" as="alternateBounds"/>
                    </mxGeometry>
                </mxCell>
                <mxCell id="OVe80IDa_NTlSNf9u7EA-34" style="shape=partialRectangle;html=1;whiteSpace=wrap;connectable=0;strokeColor=inherit;overflow=hidden;fillColor=none;top=0;left=0;bottom=0;right=0;pointerEvents=1;fontSize=16;" parent="OVe80IDa_NTlSNf9u7EA-15" vertex="1">
                    <mxGeometry x="362" width="98" height="40" as="geometry">
                        <mxRectangle width="98" height="40" as="alternateBounds"/>
                    </mxGeometry>
                </mxCell>
                <mxCell id="OVe80IDa_NTlSNf9u7EA-20" value="" style="rounded=1;whiteSpace=wrap;html=1;" parent="1" vertex="1">
                    <mxGeometry x="45" y="870" width="45" height="60" as="geometry"/>
                </mxCell>
                <mxCell id="OVe80IDa_NTlSNf9u7EA-21" value="" style="rounded=1;whiteSpace=wrap;html=1;" parent="1" vertex="1">
                    <mxGeometry x="100" y="870" width="45" height="60" as="geometry"/>
                </mxCell>
                <mxCell id="OVe80IDa_NTlSNf9u7EA-22" value="" style="rounded=1;whiteSpace=wrap;html=1;" parent="1" vertex="1">
                    <mxGeometry x="45" y="940" width="45" height="60" as="geometry"/>
                </mxCell>
                <mxCell id="OVe80IDa_NTlSNf9u7EA-24" value="" style="verticalLabelPosition=bottom;verticalAlign=top;html=1;shape=mxgraph.basic.4_point_star_2;dx=0.8;" parent="1" vertex="1">
                    <mxGeometry x="102.5" y="940" width="40" height="50" as="geometry"/>
                </mxCell>
                <mxCell id="OVe80IDa_NTlSNf9u7EA-25" value="" style="rounded=0;whiteSpace=wrap;html=1;" parent="1" vertex="1">
                    <mxGeometry x="20" y="850" width="20" height="20" as="geometry"/>
                </mxCell>
                <mxCell id="OVe80IDa_NTlSNf9u7EA-35" value="" style="rounded=1;whiteSpace=wrap;html=1;" parent="1" vertex="1">
                    <mxGeometry x="740" y="880" width="40" height="20" as="geometry"/>
                </mxCell>
                <mxCell id="OVe80IDa_NTlSNf9u7EA-36" value="" style="rounded=1;whiteSpace=wrap;html=1;" parent="1" vertex="1">
                    <mxGeometry x="790" y="880" width="40" height="20" as="geometry"/>
                </mxCell>
                <mxCell id="OVe80IDa_NTlSNf9u7EA-43" value="customers" style="swimlane;fontStyle=1;align=center;verticalAlign=top;childLayout=stackLayout;horizontal=1;startSize=26;horizontalStack=0;resizeParent=1;resizeParentMax=0;resizeLast=0;collapsible=1;marginBottom=0;whiteSpace=wrap;html=1;" parent="1" vertex="1">
                    <mxGeometry x="330" y="300" width="160" height="182" as="geometry"/>
                </mxCell>
                <mxCell id="OVe80IDa_NTlSNf9u7EA-44" value="+ field: CU_ID" style="text;strokeColor=none;fillColor=none;align=left;verticalAlign=top;spacingLeft=4;spacingRight=4;overflow=hidden;rotatable=0;points=[[0,0.5],[1,0.5]];portConstraint=eastwest;whiteSpace=wrap;html=1;" parent="OVe80IDa_NTlSNf9u7EA-43" vertex="1">
                    <mxGeometry y="26" width="160" height="26" as="geometry"/>
                </mxCell>
                <mxCell id="OVe80IDa_NTlSNf9u7EA-45" value="+ field: phone" style="text;strokeColor=none;fillColor=none;align=left;verticalAlign=top;spacingLeft=4;spacingRight=4;overflow=hidden;rotatable=0;points=[[0,0.5],[1,0.5]];portConstraint=eastwest;whiteSpace=wrap;html=1;" parent="OVe80IDa_NTlSNf9u7EA-43" vertex="1">
                    <mxGeometry y="52" width="160" height="26" as="geometry"/>
                </mxCell>
                <mxCell id="OVe80IDa_NTlSNf9u7EA-47" value="+ field: working_palce" style="text;strokeColor=none;fillColor=none;align=left;verticalAlign=top;spacingLeft=4;spacingRight=4;overflow=hidden;rotatable=0;points=[[0,0.5],[1,0.5]];portConstraint=eastwest;whiteSpace=wrap;html=1;" parent="OVe80IDa_NTlSNf9u7EA-43" vertex="1">
                    <mxGeometry y="78" width="160" height="26" as="geometry"/>
                </mxCell>
                <mxCell id="OVe80IDa_NTlSNf9u7EA-49" value="+ field: name" style="text;strokeColor=none;fillColor=none;align=left;verticalAlign=top;spacingLeft=4;spacingRight=4;overflow=hidden;rotatable=0;points=[[0,0.5],[1,0.5]];portConstraint=eastwest;whiteSpace=wrap;html=1;" parent="OVe80IDa_NTlSNf9u7EA-43" vertex="1">
                    <mxGeometry y="104" width="160" height="26" as="geometry"/>
                </mxCell>
                <mxCell id="OVe80IDa_NTlSNf9u7EA-64" value="+ field: CA_ID" style="text;strokeColor=none;fillColor=none;align=left;verticalAlign=top;spacingLeft=4;spacingRight=4;overflow=hidden;rotatable=0;points=[[0,0.5],[1,0.5]];portConstraint=eastwest;whiteSpace=wrap;html=1;" parent="OVe80IDa_NTlSNf9u7EA-43" vertex="1">
                    <mxGeometry y="130" width="160" height="26" as="geometry"/>
                </mxCell>
                <mxCell id="2" value="+ field: gender" style="text;strokeColor=none;fillColor=none;align=left;verticalAlign=top;spacingLeft=4;spacingRight=4;overflow=hidden;rotatable=0;points=[[0,0.5],[1,0.5]];portConstraint=eastwest;whiteSpace=wrap;html=1;" vertex="1" parent="OVe80IDa_NTlSNf9u7EA-43">
                    <mxGeometry y="156" width="160" height="26" as="geometry"/>
                </mxCell>
                <mxCell id="OVe80IDa_NTlSNf9u7EA-65" style="edgeStyle=orthogonalEdgeStyle;rounded=0;orthogonalLoop=1;jettySize=auto;html=1;entryX=1;entryY=0.5;entryDx=0;entryDy=0;" parent="1" source="OVe80IDa_NTlSNf9u7EA-50" target="OVe80IDa_NTlSNf9u7EA-47" edge="1">
                    <mxGeometry relative="1" as="geometry"/>
                </mxCell>
                <mxCell id="OVe80IDa_NTlSNf9u7EA-50" value="Categoray" style="swimlane;fontStyle=1;align=center;verticalAlign=top;childLayout=stackLayout;horizontal=1;startSize=26;horizontalStack=0;resizeParent=1;resizeParentMax=0;resizeLast=0;collapsible=1;marginBottom=0;whiteSpace=wrap;html=1;" parent="1" vertex="1">
                    <mxGeometry x="570" y="300" width="160" height="156" as="geometry"/>
                </mxCell>
                <mxCell id="OVe80IDa_NTlSNf9u7EA-51" value="+ field: CA_ID" style="text;strokeColor=none;fillColor=none;align=left;verticalAlign=top;spacingLeft=4;spacingRight=4;overflow=hidden;rotatable=0;points=[[0,0.5],[1,0.5]];portConstraint=eastwest;whiteSpace=wrap;html=1;" parent="OVe80IDa_NTlSNf9u7EA-50" vertex="1">
                    <mxGeometry y="26" width="160" height="26" as="geometry"/>
                </mxCell>
                <mxCell id="OVe80IDa_NTlSNf9u7EA-52" value="+ field: AMOUNT" style="text;strokeColor=none;fillColor=none;align=left;verticalAlign=top;spacingLeft=4;spacingRight=4;overflow=hidden;rotatable=0;points=[[0,0.5],[1,0.5]];portConstraint=eastwest;whiteSpace=wrap;html=1;" parent="OVe80IDa_NTlSNf9u7EA-50" vertex="1">
                    <mxGeometry y="52" width="160" height="26" as="geometry"/>
                </mxCell>
                <mxCell id="OVe80IDa_NTlSNf9u7EA-53" value="+ field: date_of_start" style="text;strokeColor=none;fillColor=none;align=left;verticalAlign=top;spacingLeft=4;spacingRight=4;overflow=hidden;rotatable=0;points=[[0,0.5],[1,0.5]];portConstraint=eastwest;whiteSpace=wrap;html=1;" parent="OVe80IDa_NTlSNf9u7EA-50" vertex="1">
                    <mxGeometry y="78" width="160" height="26" as="geometry"/>
                </mxCell>
                <mxCell id="OVe80IDa_NTlSNf9u7EA-54" value="+ field: Date_of_end" style="text;strokeColor=none;fillColor=none;align=left;verticalAlign=top;spacingLeft=4;spacingRight=4;overflow=hidden;rotatable=0;points=[[0,0.5],[1,0.5]];portConstraint=eastwest;whiteSpace=wrap;html=1;" parent="OVe80IDa_NTlSNf9u7EA-50" vertex="1">
                    <mxGeometry y="104" width="160" height="26" as="geometry"/>
                </mxCell>
                <mxCell id="OVe80IDa_NTlSNf9u7EA-55" value="+ field: Is_completed" style="text;strokeColor=none;fillColor=none;align=left;verticalAlign=top;spacingLeft=4;spacingRight=4;overflow=hidden;rotatable=0;points=[[0,0.5],[1,0.5]];portConstraint=eastwest;whiteSpace=wrap;html=1;" parent="OVe80IDa_NTlSNf9u7EA-50" vertex="1">
                    <mxGeometry y="130" width="160" height="26" as="geometry"/>
                </mxCell>
                <mxCell id="OVe80IDa_NTlSNf9u7EA-62" value="" style="group" parent="1" vertex="1" connectable="0">
                    <mxGeometry x="230" y="830" width="120" height="180" as="geometry"/>
                </mxCell>
                <mxCell id="OVe80IDa_NTlSNf9u7EA-26" value="" style="rounded=0;whiteSpace=wrap;html=1;" parent="OVe80IDa_NTlSNf9u7EA-62" vertex="1">
                    <mxGeometry width="120" height="180" as="geometry"/>
                </mxCell>
                <mxCell id="OVe80IDa_NTlSNf9u7EA-27" value="history" style="text;html=1;align=center;verticalAlign=middle;resizable=0;points=[];autosize=1;strokeColor=none;fillColor=none;" parent="OVe80IDa_NTlSNf9u7EA-62" vertex="1">
                    <mxGeometry x="10" y="15" width="60" height="30" as="geometry"/>
                </mxCell>
                <mxCell id="OVe80IDa_NTlSNf9u7EA-28" value="Add user" style="text;html=1;align=center;verticalAlign=middle;resizable=0;points=[];autosize=1;strokeColor=none;fillColor=none;" parent="OVe80IDa_NTlSNf9u7EA-62" vertex="1">
                    <mxGeometry x="10" y="40" width="70" height="30" as="geometry"/>
                </mxCell>
                <mxCell id="OVe80IDa_NTlSNf9u7EA-29" value="categoraies" style="text;html=1;align=center;verticalAlign=middle;resizable=0;points=[];autosize=1;strokeColor=none;fillColor=none;" parent="OVe80IDa_NTlSNf9u7EA-62" vertex="1">
                    <mxGeometry y="70" width="90" height="30" as="geometry"/>
                </mxCell>
                <mxCell id="OVe80IDa_NTlSNf9u7EA-31" value="profile" style="text;html=1;align=center;verticalAlign=middle;resizable=0;points=[];autosize=1;strokeColor=none;fillColor=none;" parent="OVe80IDa_NTlSNf9u7EA-62" vertex="1">
                    <mxGeometry x="15" y="100" width="60" height="30" as="geometry"/>
                </mxCell>
                <mxCell id="OVe80IDa_NTlSNf9u7EA-66" style="edgeStyle=orthogonalEdgeStyle;rounded=0;orthogonalLoop=1;jettySize=auto;html=1;entryX=-0.005;entryY=0.046;entryDx=0;entryDy=0;entryPerimeter=0;" parent="1" source="OVe80IDa_NTlSNf9u7EA-1" target="OVe80IDa_NTlSNf9u7EA-47" edge="1">
                    <mxGeometry relative="1" as="geometry"/>
                </mxCell>
                <mxCell id="OVe80IDa_NTlSNf9u7EA-69" value="" style="rounded=0;whiteSpace=wrap;html=1;" parent="1" vertex="1">
                    <mxGeometry x="400" y="1080" width="310" height="260" as="geometry"/>
                </mxCell>
                <mxCell id="OVe80IDa_NTlSNf9u7EA-70" value="" style="rounded=1;whiteSpace=wrap;html=1;" parent="1" vertex="1">
                    <mxGeometry x="470" y="1110" width="160" height="40" as="geometry"/>
                </mxCell>
                <mxCell id="OVe80IDa_NTlSNf9u7EA-71" value="" style="rounded=1;whiteSpace=wrap;html=1;" parent="1" vertex="1">
                    <mxGeometry x="470" y="1160" width="160" height="40" as="geometry"/>
                </mxCell>
                <mxCell id="OVe80IDa_NTlSNf9u7EA-72" value="" style="rounded=1;whiteSpace=wrap;html=1;" parent="1" vertex="1">
                    <mxGeometry x="470" y="1210" width="160" height="40" as="geometry"/>
                </mxCell>
                <mxCell id="OVe80IDa_NTlSNf9u7EA-73" value="" style="rounded=1;whiteSpace=wrap;html=1;" parent="1" vertex="1">
                    <mxGeometry x="470" y="1260" width="160" height="40" as="geometry"/>
                </mxCell>
                <mxCell id="OVe80IDa_NTlSNf9u7EA-74" value="" style="rounded=0;whiteSpace=wrap;html=1;" parent="1" vertex="1">
                    <mxGeometry x="60" y="1080" width="320" height="260" as="geometry"/>
                </mxCell>
                <mxCell id="OVe80IDa_NTlSNf9u7EA-75" value="" style="rounded=1;whiteSpace=wrap;html=1;" parent="1" vertex="1">
                    <mxGeometry x="140" y="1110" width="160" height="40" as="geometry"/>
                </mxCell>
                <mxCell id="OVe80IDa_NTlSNf9u7EA-76" value="" style="rounded=1;whiteSpace=wrap;html=1;" parent="1" vertex="1">
                    <mxGeometry x="140" y="1160" width="160" height="40" as="geometry"/>
                </mxCell>
                <mxCell id="OVe80IDa_NTlSNf9u7EA-77" value="" style="rounded=1;whiteSpace=wrap;html=1;" parent="1" vertex="1">
                    <mxGeometry x="140" y="1210" width="160" height="40" as="geometry"/>
                </mxCell>
                <mxCell id="OVe80IDa_NTlSNf9u7EA-78" value="" style="rounded=1;whiteSpace=wrap;html=1;" parent="1" vertex="1">
                    <mxGeometry x="140" y="1260" width="160" height="40" as="geometry"/>
                </mxCell>
                <mxCell id="OVe80IDa_NTlSNf9u7EA-79" value="Add new user" style="text;html=1;align=center;verticalAlign=middle;resizable=0;points=[];autosize=1;strokeColor=none;fillColor=none;" parent="1" vertex="1">
                    <mxGeometry x="500" y="1080" width="100" height="30" as="geometry"/>
                </mxCell>
                <mxCell id="OVe80IDa_NTlSNf9u7EA-81" value="Add categoray" style="text;html=1;align=center;verticalAlign=middle;resizable=0;points=[];autosize=1;strokeColor=none;fillColor=none;" parent="1" vertex="1">
                    <mxGeometry x="175" y="1080" width="100" height="30" as="geometry"/>
                </mxCell>
                <mxCell id="OVe80IDa_NTlSNf9u7EA-82" value="Amount" style="text;html=1;align=center;verticalAlign=middle;resizable=0;points=[];autosize=1;strokeColor=none;fillColor=none;" parent="1" vertex="1">
                    <mxGeometry x="70" y="1115" width="60" height="30" as="geometry"/>
                </mxCell>
                <mxCell id="OVe80IDa_NTlSNf9u7EA-83" value="start" style="text;html=1;align=center;verticalAlign=middle;resizable=0;points=[];autosize=1;strokeColor=none;fillColor=none;" parent="1" vertex="1">
                    <mxGeometry x="75" y="1165" width="50" height="30" as="geometry"/>
                </mxCell>
                <mxCell id="OVe80IDa_NTlSNf9u7EA-84" value="end" style="text;html=1;align=center;verticalAlign=middle;resizable=0;points=[];autosize=1;strokeColor=none;fillColor=none;" parent="1" vertex="1">
                    <mxGeometry x="85" y="1210" width="40" height="30" as="geometry"/>
                </mxCell>
                <mxCell id="OVe80IDa_NTlSNf9u7EA-86" value="Add customer" style="text;html=1;align=center;verticalAlign=middle;resizable=0;points=[];autosize=1;strokeColor=none;fillColor=none;" parent="1" vertex="1">
                    <mxGeometry x="50" y="1265" width="100" height="30" as="geometry"/>
                </mxCell>
                <mxCell id="OVe80IDa_NTlSNf9u7EA-87" value="Date" style="swimlane;fontStyle=1;align=center;verticalAlign=top;childLayout=stackLayout;horizontal=1;startSize=26;horizontalStack=0;resizeParent=1;resizeParentMax=0;resizeLast=0;collapsible=1;marginBottom=0;whiteSpace=wrap;html=1;" parent="1" vertex="1">
                    <mxGeometry x="340" y="560" width="160" height="130" as="geometry"/>
                </mxCell>
                <mxCell id="OVe80IDa_NTlSNf9u7EA-88" value="+ field: Date_ID" style="text;strokeColor=none;fillColor=none;align=left;verticalAlign=top;spacingLeft=4;spacingRight=4;overflow=hidden;rotatable=0;points=[[0,0.5],[1,0.5]];portConstraint=eastwest;whiteSpace=wrap;html=1;" parent="OVe80IDa_NTlSNf9u7EA-87" vertex="1">
                    <mxGeometry y="26" width="160" height="26" as="geometry"/>
                </mxCell>
                <mxCell id="OVe80IDa_NTlSNf9u7EA-93" value="+ field: CU_ID" style="text;strokeColor=none;fillColor=none;align=left;verticalAlign=top;spacingLeft=4;spacingRight=4;overflow=hidden;rotatable=0;points=[[0,0.5],[1,0.5]];portConstraint=eastwest;whiteSpace=wrap;html=1;" parent="OVe80IDa_NTlSNf9u7EA-87" vertex="1">
                    <mxGeometry y="52" width="160" height="26" as="geometry"/>
                </mxCell>
                <mxCell id="OVe80IDa_NTlSNf9u7EA-89" value="+ field: Amount" style="text;strokeColor=none;fillColor=none;align=left;verticalAlign=top;spacingLeft=4;spacingRight=4;overflow=hidden;rotatable=0;points=[[0,0.5],[1,0.5]];portConstraint=eastwest;whiteSpace=wrap;html=1;" parent="OVe80IDa_NTlSNf9u7EA-87" vertex="1">
                    <mxGeometry y="78" width="160" height="26" as="geometry"/>
                </mxCell>
                <mxCell id="OVe80IDa_NTlSNf9u7EA-90" value="+ field: date" style="text;strokeColor=none;fillColor=none;align=left;verticalAlign=top;spacingLeft=4;spacingRight=4;overflow=hidden;rotatable=0;points=[[0,0.5],[1,0.5]];portConstraint=eastwest;whiteSpace=wrap;html=1;" parent="OVe80IDa_NTlSNf9u7EA-87" vertex="1">
                    <mxGeometry y="104" width="160" height="26" as="geometry"/>
                </mxCell>
                <mxCell id="OVe80IDa_NTlSNf9u7EA-94" style="edgeStyle=orthogonalEdgeStyle;rounded=0;orthogonalLoop=1;jettySize=auto;html=1;entryX=0.45;entryY=0.034;entryDx=0;entryDy=0;entryPerimeter=0;" parent="1" source="OVe80IDa_NTlSNf9u7EA-43" target="OVe80IDa_NTlSNf9u7EA-87" edge="1">
                    <mxGeometry relative="1" as="geometry">
                        <Array as="points">
                            <mxPoint x="410" y="564"/>
                        </Array>
                    </mxGeometry>
                </mxCell>
                <mxCell id="OVe80IDa_NTlSNf9u7EA-97" style="edgeStyle=orthogonalEdgeStyle;rounded=0;orthogonalLoop=1;jettySize=auto;html=1;entryX=0.5;entryY=0;entryDx=0;entryDy=0;" parent="1" source="OVe80IDa_NTlSNf9u7EA-95" target="OVe80IDa_NTlSNf9u7EA-96" edge="1">
                    <mxGeometry relative="1" as="geometry"/>
                </mxCell>
                <mxCell id="OVe80IDa_NTlSNf9u7EA-95" value="Login" style="ellipse;whiteSpace=wrap;html=1;" parent="1" vertex="1">
                    <mxGeometry x="810" y="260" width="120" height="80" as="geometry"/>
                </mxCell>
                <mxCell id="OVe80IDa_NTlSNf9u7EA-96" value="see history" style="ellipse;whiteSpace=wrap;html=1;" parent="1" vertex="1">
                    <mxGeometry x="810" y="380" width="120" height="80" as="geometry"/>
                </mxCell>
                <mxCell id="OVe80IDa_NTlSNf9u7EA-98" style="edgeStyle=orthogonalEdgeStyle;rounded=0;orthogonalLoop=1;jettySize=auto;html=1;entryX=0.5;entryY=0;entryDx=0;entryDy=0;" parent="1" source="OVe80IDa_NTlSNf9u7EA-99" target="OVe80IDa_NTlSNf9u7EA-100" edge="1">
                    <mxGeometry relative="1" as="geometry"/>
                </mxCell>
                <mxCell id="OVe80IDa_NTlSNf9u7EA-99" value="Login" style="ellipse;whiteSpace=wrap;html=1;" parent="1" vertex="1">
                    <mxGeometry x="1130" y="240" width="120" height="80" as="geometry"/>
                </mxCell>
                <mxCell id="OVe80IDa_NTlSNf9u7EA-100" value="profile" style="ellipse;whiteSpace=wrap;html=1;" parent="1" vertex="1">
                    <mxGeometry x="1130" y="360" width="120" height="80" as="geometry"/>
                </mxCell>
                <mxCell id="OVe80IDa_NTlSNf9u7EA-105" style="edgeStyle=orthogonalEdgeStyle;rounded=0;orthogonalLoop=1;jettySize=auto;html=1;" parent="1" source="OVe80IDa_NTlSNf9u7EA-101" edge="1">
                    <mxGeometry relative="1" as="geometry">
                        <mxPoint x="1190" y="570" as="targetPoint"/>
                        <Array as="points">
                            <mxPoint x="1190" y="555"/>
                            <mxPoint x="1191" y="555"/>
                        </Array>
                    </mxGeometry>
                </mxCell>
                <mxCell id="OVe80IDa_NTlSNf9u7EA-101" value="" style="shape=rhombus;html=1;verticalLabelPosition=bottom;verticalAlignment=top;" parent="1" vertex="1">
                    <mxGeometry x="1170" y="500" width="40" height="40" as="geometry"/>
                </mxCell>
                <mxCell id="OVe80IDa_NTlSNf9u7EA-102" value="" style="edgeStyle=elbowEdgeStyle;html=1;elbow=horizontal;align=right;verticalAlign=bottom;endArrow=none;rounded=0;labelBackgroundColor=none;startArrow=open;startSize=12;entryX=0.5;entryY=1;entryDx=0;entryDy=0;" parent="1" source="OVe80IDa_NTlSNf9u7EA-101" target="OVe80IDa_NTlSNf9u7EA-100" edge="1">
                    <mxGeometry relative="1" as="geometry">
                        <mxPoint x="1190" y="460" as="targetPoint"/>
                    </mxGeometry>
                </mxCell>
                <mxCell id="OVe80IDa_NTlSNf9u7EA-103" value="change name" style="edgeStyle=elbowEdgeStyle;html=1;elbow=vertical;verticalAlign=bottom;endArrow=open;rounded=0;labelBackgroundColor=none;endSize=12;entryX=0;entryY=0.5;entryDx=0;entryDy=0;" parent="1" source="OVe80IDa_NTlSNf9u7EA-101" target="OVe80IDa_NTlSNf9u7EA-106" edge="1">
                    <mxGeometry relative="1" as="geometry">
                        <mxPoint x="1290" y="520" as="targetPoint"/>
                    </mxGeometry>
                </mxCell>
                <mxCell id="OVe80IDa_NTlSNf9u7EA-104" value="cahnge pwd" style="edgeStyle=elbowEdgeStyle;html=1;elbow=vertical;verticalAlign=bottom;endArrow=open;rounded=0;labelBackgroundColor=none;endSize=12;" parent="1" source="OVe80IDa_NTlSNf9u7EA-101" target="OVe80IDa_NTlSNf9u7EA-109" edge="1">
                    <mxGeometry relative="1" as="geometry">
                        <mxPoint x="1090" y="520" as="targetPoint"/>
                    </mxGeometry>
                </mxCell>
                <mxCell id="OVe80IDa_NTlSNf9u7EA-108" style="edgeStyle=orthogonalEdgeStyle;rounded=0;orthogonalLoop=1;jettySize=auto;html=1;entryX=0.5;entryY=0;entryDx=0;entryDy=0;" parent="1" source="OVe80IDa_NTlSNf9u7EA-106" target="OVe80IDa_NTlSNf9u7EA-107" edge="1">
                    <mxGeometry relative="1" as="geometry"/>
                </mxCell>
                <mxCell id="OVe80IDa_NTlSNf9u7EA-106" value="comfermation" style="ellipse;whiteSpace=wrap;html=1;" parent="1" vertex="1">
                    <mxGeometry x="1320" y="480" width="120" height="80" as="geometry"/>
                </mxCell>
                <mxCell id="OVe80IDa_NTlSNf9u7EA-107" value="name updated" style="ellipse;whiteSpace=wrap;html=1;" parent="1" vertex="1">
                    <mxGeometry x="1320" y="600" width="120" height="80" as="geometry"/>
                </mxCell>
                <mxCell id="OVe80IDa_NTlSNf9u7EA-111" style="edgeStyle=orthogonalEdgeStyle;rounded=0;orthogonalLoop=1;jettySize=auto;html=1;entryX=0.5;entryY=0;entryDx=0;entryDy=0;" parent="1" source="OVe80IDa_NTlSNf9u7EA-109" target="OVe80IDa_NTlSNf9u7EA-110" edge="1">
                    <mxGeometry relative="1" as="geometry"/>
                </mxCell>
                <mxCell id="OVe80IDa_NTlSNf9u7EA-109" value="old password" style="ellipse;whiteSpace=wrap;html=1;" parent="1" vertex="1">
                    <mxGeometry x="960" y="480" width="120" height="80" as="geometry"/>
                </mxCell>
                <mxCell id="OVe80IDa_NTlSNf9u7EA-113" style="edgeStyle=orthogonalEdgeStyle;rounded=0;orthogonalLoop=1;jettySize=auto;html=1;entryX=0.5;entryY=0;entryDx=0;entryDy=0;" parent="1" source="OVe80IDa_NTlSNf9u7EA-110" target="OVe80IDa_NTlSNf9u7EA-112" edge="1">
                    <mxGeometry relative="1" as="geometry"/>
                </mxCell>
                <mxCell id="OVe80IDa_NTlSNf9u7EA-110" value="new password" style="ellipse;whiteSpace=wrap;html=1;" parent="1" vertex="1">
                    <mxGeometry x="960" y="600" width="120" height="80" as="geometry"/>
                </mxCell>
                <mxCell id="OVe80IDa_NTlSNf9u7EA-112" value="update pwd" style="ellipse;whiteSpace=wrap;html=1;" parent="1" vertex="1">
                    <mxGeometry x="960" y="710" width="120" height="80" as="geometry"/>
                </mxCell>
                <mxCell id="OVe80IDa_NTlSNf9u7EA-115" style="edgeStyle=orthogonalEdgeStyle;rounded=0;orthogonalLoop=1;jettySize=auto;html=1;entryX=0.5;entryY=0;entryDx=0;entryDy=0;" parent="1" source="OVe80IDa_NTlSNf9u7EA-116" target="OVe80IDa_NTlSNf9u7EA-117" edge="1">
                    <mxGeometry relative="1" as="geometry"/>
                </mxCell>
                <mxCell id="OVe80IDa_NTlSNf9u7EA-116" value="comfermation" style="ellipse;whiteSpace=wrap;html=1;" parent="1" vertex="1">
                    <mxGeometry x="1130" y="580" width="120" height="80" as="geometry"/>
                </mxCell>
                <mxCell id="OVe80IDa_NTlSNf9u7EA-117" value="name updated" style="ellipse;whiteSpace=wrap;html=1;" parent="1" vertex="1">
                    <mxGeometry x="1130" y="700" width="120" height="80" as="geometry"/>
                </mxCell>
                <mxCell id="OVe80IDa_NTlSNf9u7EA-118" style="edgeStyle=orthogonalEdgeStyle;rounded=0;orthogonalLoop=1;jettySize=auto;html=1;entryX=0.5;entryY=0;entryDx=0;entryDy=0;" parent="1" source="OVe80IDa_NTlSNf9u7EA-119" target="OVe80IDa_NTlSNf9u7EA-120" edge="1">
                    <mxGeometry relative="1" as="geometry"/>
                </mxCell>
                <mxCell id="OVe80IDa_NTlSNf9u7EA-119" value="Login" style="ellipse;whiteSpace=wrap;html=1;" parent="1" vertex="1">
                    <mxGeometry x="1540" y="230" width="120" height="80" as="geometry"/>
                </mxCell>
                <mxCell id="OVe80IDa_NTlSNf9u7EA-127" style="edgeStyle=orthogonalEdgeStyle;rounded=0;orthogonalLoop=1;jettySize=auto;html=1;entryX=0.5;entryY=0;entryDx=0;entryDy=0;" parent="1" source="OVe80IDa_NTlSNf9u7EA-120" target="OVe80IDa_NTlSNf9u7EA-121" edge="1">
                    <mxGeometry relative="1" as="geometry"/>
                </mxCell>
                <mxCell id="OVe80IDa_NTlSNf9u7EA-120" value="category" style="ellipse;whiteSpace=wrap;html=1;" parent="1" vertex="1">
                    <mxGeometry x="1540" y="350" width="120" height="80" as="geometry"/>
                </mxCell>
                <mxCell id="OVe80IDa_NTlSNf9u7EA-124" style="edgeStyle=orthogonalEdgeStyle;rounded=0;orthogonalLoop=1;jettySize=auto;html=1;entryX=0.5;entryY=0;entryDx=0;entryDy=0;" parent="1" source="OVe80IDa_NTlSNf9u7EA-121" target="OVe80IDa_NTlSNf9u7EA-123" edge="1">
                    <mxGeometry relative="1" as="geometry"/>
                </mxCell>
                <mxCell id="OVe80IDa_NTlSNf9u7EA-121" value="fill form" style="ellipse;whiteSpace=wrap;html=1;" parent="1" vertex="1">
                    <mxGeometry x="1540" y="480" width="120" height="80" as="geometry"/>
                </mxCell>
                <mxCell id="OVe80IDa_NTlSNf9u7EA-126" style="edgeStyle=orthogonalEdgeStyle;rounded=0;orthogonalLoop=1;jettySize=auto;html=1;entryX=0.5;entryY=0;entryDx=0;entryDy=0;" parent="1" source="OVe80IDa_NTlSNf9u7EA-123" target="OVe80IDa_NTlSNf9u7EA-125" edge="1">
                    <mxGeometry relative="1" as="geometry"/>
                </mxCell>
                <mxCell id="OVe80IDa_NTlSNf9u7EA-123" value="Add use" style="ellipse;whiteSpace=wrap;html=1;" parent="1" vertex="1">
                    <mxGeometry x="1540" y="610" width="120" height="80" as="geometry"/>
                </mxCell>
                <mxCell id="OVe80IDa_NTlSNf9u7EA-125" value="submit" style="ellipse;whiteSpace=wrap;html=1;" parent="1" vertex="1">
                    <mxGeometry x="1540" y="730" width="120" height="80" as="geometry"/>
                </mxCell>
                <mxCell id="OVe80IDa_NTlSNf9u7EA-128" style="edgeStyle=orthogonalEdgeStyle;rounded=0;orthogonalLoop=1;jettySize=auto;html=1;entryX=0.5;entryY=0;entryDx=0;entryDy=0;" parent="1" source="OVe80IDa_NTlSNf9u7EA-129" target="OVe80IDa_NTlSNf9u7EA-130" edge="1">
                    <mxGeometry relative="1" as="geometry"/>
                </mxCell>
                <mxCell id="OVe80IDa_NTlSNf9u7EA-129" value="Login" style="ellipse;whiteSpace=wrap;html=1;" parent="1" vertex="1">
                    <mxGeometry x="1780" y="240" width="120" height="80" as="geometry"/>
                </mxCell>
                <mxCell id="OVe80IDa_NTlSNf9u7EA-132" style="edgeStyle=orthogonalEdgeStyle;rounded=0;orthogonalLoop=1;jettySize=auto;html=1;entryX=0.5;entryY=0;entryDx=0;entryDy=0;" parent="1" source="OVe80IDa_NTlSNf9u7EA-130" target="OVe80IDa_NTlSNf9u7EA-131" edge="1">
                    <mxGeometry relative="1" as="geometry"/>
                </mxCell>
                <mxCell id="OVe80IDa_NTlSNf9u7EA-130" value="select category" style="ellipse;whiteSpace=wrap;html=1;" parent="1" vertex="1">
                    <mxGeometry x="1780" y="360" width="120" height="80" as="geometry"/>
                </mxCell>
                <mxCell id="OVe80IDa_NTlSNf9u7EA-131" value="select category" style="ellipse;whiteSpace=wrap;html=1;" parent="1" vertex="1">
                    <mxGeometry x="1780" y="490" width="120" height="80" as="geometry"/>
                </mxCell>
            </root>
        </mxGraphModel>
    </diagram>
</mxfile>